<svg aria-roledescription="gitGraph" role="graphics-document document" viewBox="-111.59375 -34.45000076293945 569.59375 201.59996032714844" height="201.59996032714844" xmlns:xlink="http://www.w3.org/1999/xlink" xmlns="http://www.w3.org/2000/svg" width="569.59375" id="mermaid-1681118992392" style="background-color: transparent;"><style>[id^="mermaid-"] {
	font-family: "Consolas", verdana, arial, sans-serif;
	font-size: 14px;
	fill: #333;
}

[id^="mermaid-"] .error-icon {
	fill: hsl(220.5882352941, 100%, 98.3333333333%);
}

[id^="mermaid-"] .error-text {
	fill: rgb(8.5000000002, 5.7500000001, 0);
	stroke: rgb(8.5000000002, 5.7500000001, 0);
}

[id^="mermaid-"] .edge-thickness-normal {
	stroke-width: 2px;
}

[id^="mermaid-"] .edge-thickness-thick {
	stroke-width: 3.5px;
}

[id^="mermaid-"] .edge-pattern-solid {
	stroke-dasharray: 0;
}

[id^="mermaid-"] .edge-pattern-dashed {
	stroke-dasharray: 3;
}

[id^="mermaid-"] .edge-pattern-dotted {
	stroke-dasharray: 2;
}

[id^="mermaid-"] .marker {
	fill: #0b0b0b;
	stroke: #0b0b0b;
}

[id^="mermaid-"] .marker.cross {
	stroke: #0b0b0b;
}

[id^="mermaid-"] svg {
	font-family: "Consolas", verdana, arial, sans-serif;
	font-size: 16px;
}

[id^="mermaid-"] .commit-id,
[id^="mermaid-"] .commit-msg,
[id^="mermaid-"] .branch-label {
	fill: lightgrey;
	color: lightgrey;
	font-family: "Consolas", verdana, arial, sans-serif;
	font-family: var(--mermaid-font-family);
}

[id^="mermaid-"] .branch-label0 {
	fill: #111111;
}

[id^="mermaid-"] .commit0 {
	stroke: #ff4930;
	fill: #ff4930;
}

[id^="mermaid-"] .commit-highlight0 {
	stroke: rgb(79.4999999999, 233.8043478261, 255);
	fill: rgb(79.4999999999, 233.8043478261, 255);
}

[id^="mermaid-"] .label0 {
	fill: #ff4930;
}

[id^="mermaid-"] .arrow0 {
	stroke: #ff4930;
}

[id^="mermaid-"] .branch-label1 {
	fill: #111111;
}

[id^="mermaid-"] .commit1 {
	stroke: #f6c65b;
	fill: #f6c65b;
}

[id^="mermaid-"] .commit-highlight1 {
	stroke: rgb(56.3988439309, 114.5260115609, 244.1011560693);
	fill: rgb(56.3988439309, 114.5260115609, 244.1011560693);
}

[id^="mermaid-"] .label1 {
	fill: #f6c65b;
}

[id^="mermaid-"] .arrow1 {
	stroke: #f6c65b;
}

[id^="mermaid-"] .branch-label2 {
	fill: #333;
}

[id^="mermaid-"] .commit2 {
	stroke: #02ccd5;
	fill: #02ccd5;
}

[id^="mermaid-"] .commit-highlight2 {
	stroke: rgb(254.1860465116, 171.9767441861, 168.3139534884);
	fill: rgb(254.1860465116, 171.9767441861, 168.3139534884);
}

[id^="mermaid-"] .label2 {
	fill: #02ccd5;
}

[id^="mermaid-"] .arrow2 {
	stroke: #02ccd5;
}

[id^="mermaid-"] .branch-label3 {
	fill: #333;
}

[id^="mermaid-"] .commit3 {
	stroke: hsl(10.5882352941, 100%, 68.3333333333%);
	fill: hsl(10.5882352941, 100%, 68.3333333333%);
}

[id^="mermaid-"] .commit-highlight3 {
	stroke: rgb(0, 133.0000000002, 161.5000000002);
	fill: rgb(0, 133.0000000002, 161.5000000002);
}

[id^="mermaid-"] .label3 {
	fill: hsl(10.5882352941, 100%, 68.3333333333%);
}

[id^="mermaid-"] .arrow3 {
	stroke: hsl(10.5882352941, 100%, 68.3333333333%);
}

[id^="mermaid-"] .branch-label4 {
	fill: #333;
}

[id^="mermaid-"] .commit4 {
	stroke: hsl(-19.4117647059, 100%, 68.3333333333%);
	fill: hsl(-19.4117647059, 100%, 68.3333333333%);
}

[id^="mermaid-"] .commit-highlight4 {
	stroke: rgb(0, 161.5000000002, 109.2500000001);
	fill: rgb(0, 161.5000000002, 109.2500000001);
}

[id^="mermaid-"] .label4 {
	fill: hsl(-19.4117647059, 100%, 68.3333333333%);
}

[id^="mermaid-"] .arrow4 {
	stroke: hsl(-19.4117647059, 100%, 68.3333333333%);
}

[id^="mermaid-"] .branch-label5 {
	fill: #333;
}

[id^="mermaid-"] .commit5 {
	stroke: hsl(-49.4117647059, 100%, 68.3333333333%);
	fill: hsl(-49.4117647059, 100%, 68.3333333333%);
}

[id^="mermaid-"] .commit-highlight5 {
	stroke: rgb(0, 161.5000000002, 28.5);
	fill: rgb(0, 161.5000000002, 28.5);
}

[id^="mermaid-"] .label5 {
	fill: hsl(-49.4117647059, 100%, 68.3333333333%);
}

[id^="mermaid-"] .arrow5 {
	stroke: hsl(-49.4117647059, 100%, 68.3333333333%);
}

[id^="mermaid-"] .branch-label6 {
	fill: #333;
}

[id^="mermaid-"] .commit6 {
	stroke: hsl(100.5882352941, 100%, 68.3333333333%);
	fill: hsl(100.5882352941, 100%, 68.3333333333%);
}

[id^="mermaid-"] .commit-highlight6 {
	stroke: rgb(109.2500000001, 0, 161.5000000002);
	fill: rgb(109.2500000001, 0, 161.5000000002);
}

[id^="mermaid-"] .label6 {
	fill: hsl(100.5882352941, 100%, 68.3333333333%);
}

[id^="mermaid-"] .arrow6 {
	stroke: hsl(100.5882352941, 100%, 68.3333333333%);
}

[id^="mermaid-"] .branch-label7 {
	fill: #333;
}

[id^="mermaid-"] .commit7 {
	stroke: hsl(160.5882352941, 100%, 68.3333333333%);
	fill: hsl(160.5882352941, 100%, 68.3333333333%);
}

[id^="mermaid-"] .commit-highlight7 {
	stroke: rgb(161.5000000002, 0, 52.2500000001);
	fill: rgb(161.5000000002, 0, 52.2500000001);
}

[id^="mermaid-"] .label7 {
	fill: hsl(160.5882352941, 100%, 68.3333333333%);
}

[id^="mermaid-"] .arrow7 {
	stroke: hsl(160.5882352941, 100%, 68.3333333333%);
}

[id^="mermaid-"] .branch {
	stroke-width: 1;
	stroke: #cccccc;
	stroke-dasharray: 2;
}

[id^="mermaid-"] .commit-label {
	font-size: 10px;
	fill: #111111;
}

[id^="mermaid-"] .commit-label-bkg {
	font-size: 10px;
	fill: #ffffff;
	opacity: 0.7;
}

[id^="mermaid-"] .tag-label {
	font-size: 9px;
	fill: #ffffff;
}

[id^="mermaid-"] .tag-label-bkg {
	fill: #323765;
	stroke: #323765;
}

[id^="mermaid-"] .tag-hole {
	fill: #ffffff;
}

[id^="mermaid-"] .commit-merge {
	stroke: #ffffff;
	fill: #ffffff;
}

[id^="mermaid-"] .commit-reverse {
	stroke: #ffffff;
	fill: #ffffff;
	stroke-width: 3;
}

[id^="mermaid-"] .commit-highlight-inner {
	stroke: #e3fcff;
	fill: #e3fcff;
}

[id^="mermaid-"] .arrow {
	stroke-width: 8;
	stroke-linecap: round;
	fill: none;
}

[id^="mermaid-"] .gitTitleText {
	text-anchor: middle;
	font-size: 18px;
	fill: #333;
}

:root {
	--mermaid-font-family: "Consolas", verdana, arial, sans-serif;
}</style><g/><g class="commit-bullets"/><g class="commit-labels"/><g><line class="branch branch0" y2="0" x2="450" y1="0" x1="0"/><rect transform="translate(-19, -9.25)" height="22.5" width="68.59375" y="-1.25" x="-84.59375" ry="4" rx="4" class="branchLabelBkg label0"/><g class="branchLabel"><g transform="translate(-94.59375, -10.25)" class="label branch-label0"><text><tspan class="row" x="0" dy="1em" xml:space="preserve">staging</tspan></text></g></g><line class="branch branch1" y2="90" x2="450" y1="90" x1="0"/><rect transform="translate(-19, 80.75)" height="22.5" width="52.9921875" y="-1.25" x="-68.9921875" ry="4" rx="4" class="branchLabelBkg label1"/><g class="branchLabel"><g transform="translate(-78.9921875, 79.75)" class="label branch-label1"><text><tspan class="row" x="0" dy="1em" xml:space="preserve">main</tspan></text></g></g></g><g class="commit-arrows"><path class="arrow arrow0" d="M 10 0 L 10 0  10 0 L 60 0"/><path class="arrow arrow1" d="M 60 0 L 60 70 A 20 20, 0, 0, 0, 80 90 L 110 90"/><path class="arrow arrow1" d="M 110 90 L 110 90  110 90 L 160 90"/><path class="arrow arrow1" d="M 160 90 L 160 90  160 90 L 210 90"/><path class="arrow arrow1" d="M 210 90 L 210 90  210 90 L 260 90"/><path class="arrow arrow1" d="M 260 90 L 260 90  260 90 L 310 90"/><path class="arrow arrow0" d="M 60 0 L 60 0  60 0 L 360 0"/><path class="arrow arrow1" d="M 310 90 L 340 90 A 20 20, 0, 0, 0, 360 70 L 360 0"/><path class="arrow arrow0" d="M 360 0 L 360 0  360 0 L 410 0"/></g><g class="commit-bullets"><circle class="commit … commit0" r="10" cy="0" cx="10"/><circle class="commit af2f5e9 commit0" r="10" cy="0" cx="60"/><circle class="commit ef40b40 commit1" r="10" cy="90" cx="110"/><circle class="commit 8caaadd commit1" r="10" cy="90" cx="160"/><circle class="commit dd81f00 commit1" r="10" cy="90" cx="210"/><circle class="commit 60+ commits… commit1" r="10" cy="90" cx="260"/><circle class="commit 6854a97 commit1" r="10" cy="90" cx="310"/><circle class="commit MERGE commit commit0" r="9" cy="0" cx="360"/><path class="commit commit-reverse MERGE commit commit0" d="M 355,-5L365,5M355,5L365,-5"/><rect class="commit Oops Revert commit-highlight0 commit-highlight-outer" width="20" height="20" y="-10" x="400"/><rect class="commit Oops Revert commit0 commit-highlight-inner" width="12" height="12" y="-6" x="404"/></g><g class="commit-labels"><g transform="translate(-14.090625, 12.496875) rotate(-45, 0, 0)"><rect height="15.5" width="11.34375" y="13.5" x="4.328125" class="commit-label-bkg"/><text class="commit-label" y="25" x="6.328125">…</text></g><g transform="translate(-24.15765625, 21.50421875) rotate(-45, 50, 0)"><rect height="15.5" width="37.8359375" y="13.5" x="41.08203125" class="commit-label-bkg"/><text class="commit-label" y="25" x="43.08203125">af2f5e9</text></g><polygon points="19.9609375,-17.2&#10;          19.9609375,-21.2&#10;          27.9609375,-26.45&#10;          92.0390625,-26.45&#10;          92.0390625,-11.95&#10;          27.9609375,-11.95" class="tag-label-bkg"/><circle class="tag-hole" r="1.5" cy="-19.2" cx="23.9609375"/><text x="31.9609375" class="tag-label" y="-16">origin/staging</text><g transform="translate(-24.8671875, 22.1390625) rotate(-45, 100, 90)"><rect height="15.5" width="39.703125" y="103.5" x="90.1484375" class="commit-label-bkg"/><text class="commit-label" y="115" x="92.1484375">ef40b40</text></g><g transform="translate(-25.39859375, 22.61453125) rotate(-45, 150, 90)"><rect height="15.5" width="41.1015625" y="103.5" x="139.44921875" class="commit-label-bkg"/><text class="commit-label" y="115" x="141.44921875">8caaadd</text></g><g transform="translate(-24.91171875, 22.17890625) rotate(-45, 200, 90)"><rect height="15.5" width="39.8203125" y="103.5" x="190.08984375" class="commit-label-bkg"/><text class="commit-label" y="115" x="192.08984375">dd81f00</text></g><g transform="translate(-35.572500000000005, 31.7175) rotate(-45, 250, 90)"><rect height="15.5" width="67.875" y="103.5" x="226.0625" class="commit-label-bkg"/><text class="commit-label" y="115" x="228.0625">60+ commits…</text></g><g transform="translate(-25.253125, 22.484375) rotate(-45, 300, 90)"><rect height="15.5" width="40.71875" y="103.5" x="289.640625" class="commit-label-bkg"/><text class="commit-label" y="115" x="291.640625">6854a97</text></g><polygon points="274.34765625,72.8&#10;          274.34765625,68.8&#10;          282.34765625,63.55&#10;          337.65234375,63.55&#10;          337.65234375,78.05&#10;          282.34765625,78.05" class="tag-label-bkg"/><circle class="tag-hole" r="1.5" cy="70.8" cx="278.34765625"/><text x="286.34765625" class="tag-label" y="74">origin/main</text><g transform="translate(-36.8134375, 32.8278125) rotate(-45, 350, 0)"><rect height="15.5" width="71.140625" y="13.5" x="324.4296875" class="commit-label-bkg"/><text class="commit-label" y="25" x="326.4296875">MERGE commit</text></g><g transform="translate(-31.74875, 28.29625) rotate(-45, 400, 0)"><rect height="15.55078125" width="57.8125" y="13.5" x="381.09375" class="commit-label-bkg"/><text class="commit-label" y="25" x="383.09375">Oops Revert</text></g><polygon points="387.23046875,-17.2&#10;          387.23046875,-21.2&#10;          395.23046875,-26.45&#10;          424.76953125,-26.45&#10;          424.76953125,-11.95&#10;          395.23046875,-11.95" class="tag-label-bkg"/><circle class="tag-hole" r="1.5" cy="-19.2" cx="391.23046875"/><text x="399.23046875" class="tag-label" y="-16">HEAD</text></g></svg>