<svg aria-roledescription="gitGraph" role="graphics-document document" viewBox="-142 -34.97539138793945 600 273.28564453125" height="273.28564453125" xmlns:xlink="http://www.w3.org/1999/xlink" xmlns="http://www.w3.org/2000/svg" width="600" id="mermaid-1681153114314" style="background-color: transparent;"><style>#mermaid-1681153114314{font-family:"Consolas", verdana, arial, sans-serif;font-size:14px;fill:#333;}#mermaid-1681153114314 .error-icon{fill:hsl(220.5882352941, 100%, 98.3333333333%);}#mermaid-1681153114314 .error-text{fill:rgb(8.5000000002, 5.7500000001, 0);stroke:rgb(8.5000000002, 5.7500000001, 0);}#mermaid-1681153114314 .edge-thickness-normal{stroke-width:2px;}#mermaid-1681153114314 .edge-thickness-thick{stroke-width:3.5px;}#mermaid-1681153114314 .edge-pattern-solid{stroke-dasharray:0;}#mermaid-1681153114314 .edge-pattern-dashed{stroke-dasharray:3;}#mermaid-1681153114314 .edge-pattern-dotted{stroke-dasharray:2;}#mermaid-1681153114314 .marker{fill:#0b0b0b;stroke:#0b0b0b;}#mermaid-1681153114314 .marker.cross{stroke:#0b0b0b;}#mermaid-1681153114314 svg{font-family:"Consolas", verdana, arial, sans-serif;font-size:14px;}#mermaid-1681153114314 .commit-id,#mermaid-1681153114314 .commit-msg,#mermaid-1681153114314 .branch-label{fill:lightgrey;color:lightgrey;font-family:"Consolas", verdana, arial, sans-serif;font-family:var(--mermaid-font-family);}#mermaid-1681153114314 .branch-label0{fill:#333;}#mermaid-1681153114314 .commit0{stroke:#ff4930;fill:#ff4930;}#mermaid-1681153114314 .commit-highlight0{stroke:rgb(79.4999999999, 233.8043478261, 255);fill:rgb(79.4999999999, 233.8043478261, 255);}#mermaid-1681153114314 .label0{fill:#ff4930;}#mermaid-1681153114314 .arrow0{stroke:#ff4930;}#mermaid-1681153114314 .branch-label1{fill:#333;}#mermaid-1681153114314 .commit1{stroke:#f6c65b;fill:#f6c65b;}#mermaid-1681153114314 .commit-highlight1{stroke:rgb(56.3988439309, 114.5260115609, 244.1011560693);fill:rgb(56.3988439309, 114.5260115609, 244.1011560693);}#mermaid-1681153114314 .label1{fill:#f6c65b;}#mermaid-1681153114314 .arrow1{stroke:#f6c65b;}#mermaid-1681153114314 .branch-label2{fill:#333;}#mermaid-1681153114314 .commit2{stroke:#02ccd5;fill:#02ccd5;}#mermaid-1681153114314 .commit-highlight2{stroke:rgb(254.1860465116, 171.9767441861, 168.3139534884);fill:rgb(254.1860465116, 171.9767441861, 168.3139534884);}#mermaid-1681153114314 .label2{fill:#02ccd5;}#mermaid-1681153114314 .arrow2{stroke:#02ccd5;}#mermaid-1681153114314 .branch-label3{fill:#333;}#mermaid-1681153114314 .commit3{stroke:hsl(10.5882352941, 100%, 68.3333333333%);fill:hsl(10.5882352941, 100%, 68.3333333333%);}#mermaid-1681153114314 .commit-highlight3{stroke:rgb(0, 133.0000000002, 161.5000000002);fill:rgb(0, 133.0000000002, 161.5000000002);}#mermaid-1681153114314 .label3{fill:hsl(10.5882352941, 100%, 68.3333333333%);}#mermaid-1681153114314 .arrow3{stroke:hsl(10.5882352941, 100%, 68.3333333333%);}#mermaid-1681153114314 .branch-label4{fill:#333;}#mermaid-1681153114314 .commit4{stroke:hsl(-19.4117647059, 100%, 68.3333333333%);fill:hsl(-19.4117647059, 100%, 68.3333333333%);}#mermaid-1681153114314 .commit-highlight4{stroke:rgb(0, 161.5000000002, 109.2500000001);fill:rgb(0, 161.5000000002, 109.2500000001);}#mermaid-1681153114314 .label4{fill:hsl(-19.4117647059, 100%, 68.3333333333%);}#mermaid-1681153114314 .arrow4{stroke:hsl(-19.4117647059, 100%, 68.3333333333%);}#mermaid-1681153114314 .branch-label5{fill:#333;}#mermaid-1681153114314 .commit5{stroke:hsl(-49.4117647059, 100%, 68.3333333333%);fill:hsl(-49.4117647059, 100%, 68.3333333333%);}#mermaid-1681153114314 .commit-highlight5{stroke:rgb(0, 161.5000000002, 28.5);fill:rgb(0, 161.5000000002, 28.5);}#mermaid-1681153114314 .label5{fill:hsl(-49.4117647059, 100%, 68.3333333333%);}#mermaid-1681153114314 .arrow5{stroke:hsl(-49.4117647059, 100%, 68.3333333333%);}#mermaid-1681153114314 .branch-label6{fill:#333;}#mermaid-1681153114314 .commit6{stroke:hsl(100.5882352941, 100%, 68.3333333333%);fill:hsl(100.5882352941, 100%, 68.3333333333%);}#mermaid-1681153114314 .commit-highlight6{stroke:rgb(109.2500000001, 0, 161.5000000002);fill:rgb(109.2500000001, 0, 161.5000000002);}#mermaid-1681153114314 .label6{fill:hsl(100.5882352941, 100%, 68.3333333333%);}#mermaid-1681153114314 .arrow6{stroke:hsl(100.5882352941, 100%, 68.3333333333%);}#mermaid-1681153114314 .branch-label7{fill:#333;}#mermaid-1681153114314 .commit7{stroke:hsl(160.5882352941, 100%, 68.3333333333%);fill:hsl(160.5882352941, 100%, 68.3333333333%);}#mermaid-1681153114314 .commit-highlight7{stroke:rgb(161.5000000002, 0, 52.2500000001);fill:rgb(161.5000000002, 0, 52.2500000001);}#mermaid-1681153114314 .label7{fill:hsl(160.5882352941, 100%, 68.3333333333%);}#mermaid-1681153114314 .arrow7{stroke:hsl(160.5882352941, 100%, 68.3333333333%);}#mermaid-1681153114314 .branch{stroke-width:1;stroke:#cccccc;stroke-dasharray:2;}#mermaid-1681153114314 .commit-label{font-size:10px;fill:#111111;}#mermaid-1681153114314 .commit-label-bkg{font-size:10px;fill:#ffffff;opacity:0.7;}#mermaid-1681153114314 .tag-label{font-size:10px;fill:#ffffff;}#mermaid-1681153114314 .tag-label-bkg{fill:#323765;stroke:#323765;}#mermaid-1681153114314 .tag-hole{fill:#333;}#mermaid-1681153114314 .commit-merge{stroke:#fff4dd;fill:#fff4dd;}#mermaid-1681153114314 .commit-reverse{stroke:#fff4dd;fill:#fff4dd;stroke-width:3;}#mermaid-1681153114314 .commit-highlight-inner{stroke:#fff4dd;fill:#fff4dd;}#mermaid-1681153114314 .arrow{stroke-width:8;stroke-linecap:round;fill:none;}#mermaid-1681153114314 .gitTitleText{text-anchor:middle;font-size:18px;fill:#333;}:root{--mermaid-font-family:"Consolas", verdana, arial, sans-serif;}</style><g/><g class="commit-bullets"/><g class="commit-labels"/><g><line class="branch branch0" y2="0" x2="450" y1="0" x1="0"/><rect transform="translate(-19, -9.25)" height="22.5" width="52.9921875" y="-1.25" x="-68.9921875" ry="4" rx="4" class="branchLabelBkg label0"/><g class="branchLabel"><g transform="translate(-78.9921875, -10.25)" class="label branch-label0"><text><tspan class="row" x="0" dy="1em" xml:space="preserve">main</tspan></text></g></g><line class="branch branch1" y2="90" x2="450" y1="90" x1="0"/><rect transform="translate(-19, 80.75)" height="22.5" width="68.59375" y="-1.25" x="-84.59375" ry="4" rx="4" class="branchLabelBkg label1"/><g class="branchLabel"><g transform="translate(-94.59375, 79.75)" class="label branch-label1"><text><tspan class="row" x="0" dy="1em" xml:space="preserve">staging</tspan></text></g></g><line class="branch branch2" y2="180" x2="450" y1="180" x1="0"/><rect transform="translate(-19, 170.75)" height="22.5" width="99" y="-1.25" x="-115" ry="4" rx="4" class="branchLabelBkg label2"/><g class="branchLabel"><g transform="translate(-125, 169.75)" class="label branch-label2"><text><tspan class="row" x="0" dy="1em" xml:space="preserve">github.com</tspan></text></g></g></g><g class="commit-arrows"><path class="arrow arrow2" d="M 60 0 L 60 160 A 20 20, 0, 0, 0, 80 180 L 410 180"/><path class="arrow arrow2" d="M 310 0 L 310 160 A 20 20, 0, 0, 0, 330 180 L 410 180"/><path class="arrow arrow0" d="M 10 0 L 10 0  10 0 L 60 0"/><path class="arrow arrow0" d="M 60 0 L 60 0  60 0 L 110 0"/><path class="arrow arrow0" d="M 110 0 L 110 0  110 0 L 160 0"/><path class="arrow arrow0" d="M 160 0 L 160 0  160 0 L 210 0"/><path class="arrow arrow0" d="M 210 0 L 210 0  210 0 L 260 0"/><path class="arrow arrow0" d="M 260 0 L 260 0  260 0 L 310 0"/><path class="arrow arrow1" d="M 60 0 L 60 70 A 20 20, 0, 0, 0, 80 90 L 360 90"/><path class="arrow arrow1" d="M 310 0 L 310 70 A 20 20, 0, 0, 0, 330 90 L 360 90"/></g><g class="commit-bullets"><circle class="commit ... commit0" r="10" cy="0" cx="10"/><circle class="commit af2f5e9 commit0" r="10" cy="0" cx="60"/><circle class="commit ef40b40 commit0" r="10" cy="0" cx="110"/><circle class="commit 8caaadd commit0" r="10" cy="0" cx="160"/><circle class="commit dd81f00 commit0" r="10" cy="0" cx="210"/><circle class="commit 60+ commits... commit0" r="10" cy="0" cx="260"/><circle class="commit 6854a97 commit0" r="10" cy="0" cx="310"/><rect class="commit 979a4a8 commit-highlight1 commit-highlight-outer" width="20" height="20" y="80" x="350"/><rect class="commit 979a4a8 commit1 commit-highlight-inner" width="12" height="12" y="84" x="354"/><circle class="commit 9018387 commit2" r="9" cy="180" cx="410"/><circle class="commit commit-merge 9018387 commit2" r="6" cy="180" cx="410"/></g><g class="commit-labels"><g transform="translate(-15.485937499999999, 13.7453125) rotate(-45, 0, 0)"><rect height="15.5" width="15.015625" y="13.5" x="2.4921875" class="commit-label-bkg"/><text class="commit-label" y="25" x="4.4921875">...</text></g><g transform="translate(-24.15765625, 21.50421875) rotate(-45, 50, 0)"><rect height="15.5" width="37.8359375" y="13.5" x="41.08203125" class="commit-label-bkg"/><text class="commit-label" y="25" x="43.08203125">af2f5e9</text></g><polygon points="16.84765625,-17.2&#10;          16.84765625,-21.2&#10;          24.84765625,-26.975390625&#10;          95.15234375,-26.975390625&#10;          95.15234375,-11.424609375&#10;          24.84765625,-11.424609375" class="tag-label-bkg"/><circle class="tag-hole" r="1.5" cy="-19.2" cx="20.84765625"/><text x="28.84765625" class="tag-label" y="-16">origin/staging</text><g transform="translate(-24.8671875, 22.1390625) rotate(-45, 100, 0)"><rect height="15.5" width="39.703125" y="13.5" x="90.1484375" class="commit-label-bkg"/><text class="commit-label" y="25" x="92.1484375">ef40b40</text></g><g transform="translate(-25.39859375, 22.61453125) rotate(-45, 150, 0)"><rect height="15.5" width="41.1015625" y="13.5" x="139.44921875" class="commit-label-bkg"/><text class="commit-label" y="25" x="141.44921875">8caaadd</text></g><g transform="translate(-24.91171875, 22.17890625) rotate(-45, 200, 0)"><rect height="15.5" width="39.8203125" y="13.5" x="190.08984375" class="commit-label-bkg"/><text class="commit-label" y="25" x="192.08984375">dd81f00</text></g><g transform="translate(-36.9678125, 32.965937499999995) rotate(-45, 250, 0)"><rect height="15.5" width="71.546875" y="13.5" x="224.2265625" class="commit-label-bkg"/><text class="commit-label" y="25" x="226.2265625">60+ commits...</text></g><g transform="translate(-25.253125, 22.484375) rotate(-45, 300, 0)"><rect height="15.5" width="40.71875" y="13.5" x="289.640625" class="commit-label-bkg"/><text class="commit-label" y="25" x="291.640625">6854a97</text></g><polygon points="271.72265625,-17.2&#10;          271.72265625,-21.2&#10;          279.72265625,-26.975390625&#10;          340.27734375,-26.975390625&#10;          340.27734375,-11.424609375&#10;          279.72265625,-11.424609375" class="tag-label-bkg"/><circle class="tag-hole" r="1.5" cy="-19.2" cx="275.72265625"/><text x="283.72265625" class="tag-label" y="-16">origin/main</text><g transform="translate(-25.2590625, 22.489687500000002) rotate(-45, 350, 90)"><rect height="15.5" width="40.734375" y="103.5" x="339.6328125" class="commit-label-bkg"/><text class="commit-label" y="115" x="341.6328125">979a4a8</text></g><polygon points="336.03125,72.8&#10;          336.03125,68.8&#10;          344.03125,63.05&#10;          375.96875,63.05&#10;          375.96875,78.55&#10;          344.03125,78.55" class="tag-label-bkg"/><circle class="tag-hole" r="1.5" cy="70.8" cx="340.03125"/><text x="348.03125" class="tag-label" y="74">HEAD</text><g transform="translate(-25.25015625, 22.48171875) rotate(-45, 400, 180)"><rect height="15.5" width="40.7109375" y="193.5" x="389.64453125" class="commit-label-bkg"/><text class="commit-label" y="205" x="391.64453125">9018387</text></g><polygon points="366.84765625,162.8&#10;          366.84765625,158.8&#10;          374.84765625,153.024609375&#10;          445.15234375,153.024609375&#10;          445.15234375,168.575390625&#10;          374.84765625,168.575390625" class="tag-label-bkg"/><circle class="tag-hole" r="1.5" cy="160.8" cx="370.84765625"/><text x="378.84765625" class="tag-label" y="164">origin/staging</text></g></svg>