<svg xmlns="http://www.w3.org/2000/svg" xmlns:xlink="http://www.w3.org/1999/xlink" width="500" zoomAndPan="magnify" viewBox="0 0 375 374.999991" height="500" preserveAspectRatio="xMidYMid meet" version="1.0"><defs><clipPath id="id1"><path d="M 34.027344 11 L 340.777344 11 L 340.777344 364.160156 L 34.027344 364.160156 Z M 34.027344 11 " clip-rule="nonzero"/></clipPath></defs><path fill="#f5f5f5" d="M 329.941406 101.289062 L 191.371094 21.332031 L 187.621094 19.167969 L 183.875 21.332031 L 55.710938 95.277344 L 45.296875 101.289062 L 41.546875 103.453125 L 41.546875 170.953125 L 53.976562 160.128906 C 60.640625 154.328125 69.175781 151.128906 78 151.128906 C 97.847656 151.128906 114.28125 167.261719 114.621094 187.09375 L 114.621094 187.1875 L 114.628906 187.28125 C 114.628906 207.378906 130.980469 223.722656 151.082031 223.722656 C 171.183594 223.722656 187.535156 207.378906 187.535156 187.289062 C 187.535156 179.945312 189.714844 172.855469 193.832031 166.792969 C 200.679688 156.699219 212.023438 150.679688 224.164062 150.679688 C 244.359375 150.679688 260.792969 167.101562 260.792969 187.289062 C 260.792969 207.378906 277.144531 223.722656 297.246094 223.722656 C 317.347656 223.722656 333.699219 207.378906 333.699219 187.289062 L 333.699219 103.460938 Z M 329.941406 101.289062 " fill-opacity="1" fill-rule="nonzero"/><path fill="#33c1cd" d="M 78 156.28125 C 95.359375 156.28125 109.480469 170.394531 109.480469 187.742188 C 109.480469 187.824219 109.480469 187.894531 109.488281 188.019531 C 109.675781 198.949219 114.09375 209.214844 121.925781 216.914062 C 129.765625 224.617188 140.117188 228.863281 151.082031 228.863281 C 161.109375 228.863281 170.800781 225.234375 178.371094 218.644531 L 182.5625 214.996094 L 182.5625 347.664062 L 46.519531 269.160156 L 46.519531 187.742188 C 46.519531 170.394531 60.640625 156.28125 78 156.28125 Z M 78 156.28125 " fill-opacity="1" fill-rule="nonzero"/><path fill="#3752c7" d="M 224.15625 155.832031 C 241.515625 155.832031 255.636719 169.945312 255.636719 187.296875 C 255.636719 210.222656 274.300781 228.871094 297.238281 228.871094 C 307.265625 228.871094 316.957031 225.242188 324.527344 218.648438 L 328.71875 215.003906 L 328.71875 269.167969 L 192.683594 347.664062 L 192.683594 187.296875 C 192.683594 169.945312 206.796875 155.832031 224.15625 155.832031 Z M 224.15625 155.832031 " fill-opacity="1" fill-rule="nonzero"/><g clip-path="url(#id1)"><path fill="#2a0060" d="M 183.824219 12.492188 L 37.660156 96.832031 C 35.792969 97.910156 34.496094 99.710938 34.046875 101.773438 C 33.929688 102.300781 33.867188 102.851562 33.867188 103.402344 L 33.867188 272.085938 C 33.867188 274.796875 35.3125 277.300781 37.660156 278.652344 L 183.824219 362.996094 C 183.851562 363.007812 183.878906 363.023438 183.917969 363.046875 C 183.980469 363.082031 184.054688 363.117188 184.121094 363.152344 C 184.25 363.226562 184.386719 363.292969 184.523438 363.347656 C 184.589844 363.378906 184.648438 363.40625 184.714844 363.4375 C 184.894531 363.515625 185.082031 363.582031 185.269531 363.640625 C 185.34375 363.660156 185.414062 363.683594 185.496094 363.703125 C 185.652344 363.746094 185.804688 363.789062 185.964844 363.828125 C 186.023438 363.839844 186.074219 363.855469 186.132812 363.863281 C 186.339844 363.90625 186.550781 363.933594 186.761719 363.957031 C 186.820312 363.964844 186.878906 363.972656 186.933594 363.972656 C 187.160156 363.992188 187.390625 364.007812 187.617188 364.007812 C 187.839844 364.007812 188.070312 363.992188 188.296875 363.972656 C 188.355469 363.964844 188.410156 363.964844 188.46875 363.957031 C 188.679688 363.933594 188.890625 363.898438 189.097656 363.863281 C 189.15625 363.847656 189.207031 363.835938 189.265625 363.828125 C 189.425781 363.789062 189.578125 363.753906 189.738281 363.703125 C 189.808594 363.683594 189.886719 363.660156 189.960938 363.640625 C 190.148438 363.582031 190.335938 363.507812 190.519531 363.4375 C 190.582031 363.40625 190.640625 363.378906 190.707031 363.347656 C 190.84375 363.292969 190.980469 363.226562 191.113281 363.152344 C 191.183594 363.117188 191.25 363.082031 191.316406 363.046875 C 191.34375 363.03125 191.378906 363.015625 191.410156 362.996094 L 337.578125 278.652344 C 339.925781 277.300781 341.371094 274.796875 341.371094 272.085938 L 341.371094 103.410156 C 341.371094 100.695312 339.925781 98.195312 337.578125 96.839844 L 191.414062 12.492188 C 189.0625 11.140625 186.175781 11.140625 183.824219 12.492188 Z M 49.046875 267.707031 L 49.046875 187.742188 C 49.046875 171.792969 62.03125 158.8125 77.992188 158.8125 C 93.953125 158.8125 106.941406 171.792969 106.941406 187.742188 C 106.941406 187.851562 106.941406 187.960938 106.949219 188.0625 C 107.359375 212.03125 127 231.398438 151.074219 231.398438 C 162.144531 231.398438 172.269531 227.300781 180.023438 220.550781 L 180.023438 343.28125 Z M 326.191406 220.550781 L 326.191406 267.707031 L 195.210938 343.28125 L 195.210938 187.296875 C 195.210938 171.34375 208.195312 158.363281 224.15625 158.363281 C 240.117188 158.363281 253.105469 171.34375 253.105469 187.296875 C 253.105469 211.617188 272.902344 231.40625 297.238281 231.40625 C 308.304688 231.398438 318.433594 227.300781 326.191406 220.550781 Z M 326.191406 107.785156 L 326.191406 187.296875 C 326.191406 203.246094 313.207031 216.226562 297.246094 216.226562 C 281.285156 216.226562 268.296875 203.246094 268.296875 187.296875 C 268.296875 162.972656 248.5 143.183594 224.164062 143.183594 C 208.984375 143.183594 195.570312 150.890625 187.621094 162.589844 C 182.832031 169.640625 180.03125 178.152344 180.03125 187.296875 C 180.03125 203.246094 167.042969 216.226562 151.082031 216.226562 C 135.121094 216.226562 122.132812 203.246094 122.132812 187.296875 C 122.132812 187.1875 122.132812 187.078125 122.128906 186.976562 C 121.714844 163.007812 102.074219 143.640625 78 143.640625 C 66.933594 143.640625 56.804688 147.734375 49.050781 154.484375 L 49.050781 107.785156 L 59.46875 101.773438 L 187.617188 27.820312 Z M 326.191406 107.785156 " fill-opacity="1" fill-rule="nonzero"/></g></svg>