<svg aria-roledescription="gitGraph" role="graphics-document document" viewBox="-111.59375 -37.20000076293945 619.59375 185.78115844726562" height="185.78115844726562" xmlns:xlink="http://www.w3.org/1999/xlink" xmlns="http://www.w3.org/2000/svg" width="619.59375" id="mermaid-1681070100583" style="background-color: white;"><style>#mermaid-1681070100583{font-family:"trebuchet ms",verdana,arial,sans-serif;font-size:16px;fill:#333;}#mermaid-1681070100583 .error-icon{fill:hsl(220.5882352941, 100%, 98.3333333333%);}#mermaid-1681070100583 .error-text{fill:rgb(8.5000000002, 5.7500000001, 0);stroke:rgb(8.5000000002, 5.7500000001, 0);}#mermaid-1681070100583 .edge-thickness-normal{stroke-width:2px;}#mermaid-1681070100583 .edge-thickness-thick{stroke-width:3.5px;}#mermaid-1681070100583 .edge-pattern-solid{stroke-dasharray:0;}#mermaid-1681070100583 .edge-pattern-dashed{stroke-dasharray:3;}#mermaid-1681070100583 .edge-pattern-dotted{stroke-dasharray:2;}#mermaid-1681070100583 .marker{fill:#0b0b0b;stroke:#0b0b0b;}#mermaid-1681070100583 .marker.cross{stroke:#0b0b0b;}#mermaid-1681070100583 svg{font-family:"trebuchet ms",verdana,arial,sans-serif;font-size:16px;}#mermaid-1681070100583 .commit-id,#mermaid-1681070100583 .commit-msg,#mermaid-1681070100583 .branch-label{fill:lightgrey;color:lightgrey;font-family:'trebuchet ms',verdana,arial,sans-serif;font-family:var(--mermaid-font-family);}#mermaid-1681070100583 .branch-label0{fill:#333;}#mermaid-1681070100583 .commit0{stroke:#ff4930;fill:#ff4930;}#mermaid-1681070100583 .commit-highlight0{stroke:#ff4930;fill:#ff4930;}#mermaid-1681070100583 .label0{fill:#ff4930;}#mermaid-1681070100583 .arrow0{stroke:#ff4930;}#mermaid-1681070100583 .branch-label1{fill:#333;}#mermaid-1681070100583 .commit1{stroke:ff4930;fill:#f6c55b;}#mermaid-1681070100583 .commit-highlight1{stroke:rgb(52.2500000001, 161.5000000002, 0);fill:rgb(52.2500000001, 161.5000000002, 0);}#mermaid-1681070100583 .label1{fill:#f6c55b;}#mermaid-1681070100583 .arrow1{stroke:#f6c55b;}#mermaid-1681070100583 .branch-label2{fill:#333;}#mermaid-1681070100583 .commit2{stroke:hsl(220.5882352941, 100%, 73.3333333333%);fill:hsl(220.5882352941, 100%, 73.3333333333%);}#mermaid-1681070100583 .commit-highlight2{stroke:rgb(136.0000000002, 92.0000000001, 0);fill:rgb(136.0000000002, 92.0000000001, 0);}#mermaid-1681070100583 .label2{fill:hsl(220.5882352941, 100%, 73.3333333333%);}#mermaid-1681070100583 .arrow2{stroke:hsl(220.5882352941, 100%, 73.3333333333%);}#mermaid-1681070100583 .branch-label3{fill:#333;}#mermaid-1681070100583 .commit3{stroke:hsl(10.5882352941, 100%, 68.3333333333%);fill:hsl(10.5882352941, 100%, 68.3333333333%);}#mermaid-1681070100583 .commit-highlight3{stroke:rgb(0, 133.0000000002, 161.5000000002);fill:rgb(0, 133.0000000002, 161.5000000002);}#mermaid-1681070100583 .label3{fill:hsl(10.5882352941, 100%, 68.3333333333%);}#mermaid-1681070100583 .arrow3{stroke:hsl(10.5882352941, 100%, 68.3333333333%);}#mermaid-1681070100583 .branch-label4{fill:#333;}#mermaid-1681070100583 .commit4{stroke:hsl(-19.4117647059, 100%, 68.3333333333%);fill:hsl(-19.4117647059, 100%, 68.3333333333%);}#mermaid-1681070100583 .commit-highlight4{stroke:rgb(0, 161.5000000002, 109.2500000001);fill:rgb(0, 161.5000000002, 109.2500000001);}#mermaid-1681070100583 .label4{fill:hsl(-19.4117647059, 100%, 68.3333333333%);}#mermaid-1681070100583 .arrow4{stroke:hsl(-19.4117647059, 100%, 68.3333333333%);}#mermaid-1681070100583 .branch-label5{fill:#333;}#mermaid-1681070100583 .commit5{stroke:hsl(-49.4117647059, 100%, 68.3333333333%);fill:hsl(-49.4117647059, 100%, 68.3333333333%);}#mermaid-1681070100583 .commit-highlight5{stroke:rgb(0, 161.5000000002, 28.5);fill:rgb(0, 161.5000000002, 28.5);}#mermaid-1681070100583 .label5{fill:hsl(-49.4117647059, 100%, 68.3333333333%);}#mermaid-1681070100583 .arrow5{stroke:hsl(-49.4117647059, 100%, 68.3333333333%);}#mermaid-1681070100583 .branch-label6{fill:#333;}#mermaid-1681070100583 .commit6{stroke:hsl(100.5882352941, 100%, 68.3333333333%);fill:hsl(100.5882352941, 100%, 68.3333333333%);}#mermaid-1681070100583 .commit-highlight6{stroke:rgb(109.2500000001, 0, 161.5000000002);fill:rgb(109.2500000001, 0, 161.5000000002);}#mermaid-1681070100583 .label6{fill:hsl(100.5882352941, 100%, 68.3333333333%);}#mermaid-1681070100583 .arrow6{stroke:hsl(100.5882352941, 100%, 68.3333333333%);}#mermaid-1681070100583 .branch-label7{fill:#333;}#mermaid-1681070100583 .commit7{stroke:hsl(160.5882352941, 100%, 68.3333333333%);fill:hsl(160.5882352941, 100%, 68.3333333333%);}#mermaid-1681070100583 .commit-highlight7{stroke:rgb(161.5000000002, 0, 52.2500000001);fill:rgb(161.5000000002, 0, 52.2500000001);}#mermaid-1681070100583 .label7{fill:hsl(160.5882352941, 100%, 68.3333333333%);}#mermaid-1681070100583 .arrow7{stroke:hsl(160.5882352941, 100%, 68.3333333333%);}#mermaid-1681070100583 .branch{stroke-width:1;stroke:#0b0b0b;stroke-dasharray:2;}#mermaid-1681070100583 .commit-label{font-size:10px;fill:#111111;}#mermaid-1681070100583 .commit-label-bkg{font-size:10px;fill:#ffffff;opacity:0.5;}#mermaid-1681070100583 .tag-label{font-size:14px;fill:#ffffff;}#mermaid-1681070100583 .tag-label-bkg{fill:#ff4930;stroke:#ff4930;}#mermaid-1681070100583 .tag-hole{fill:#333;}#mermaid-1681070100583 .commit-merge{stroke:#fff4dd;fill:#fff4dd;}#mermaid-1681070100583 .commit-reverse{stroke:#fff4dd;fill:#fff4dd;stroke-width:3;}#mermaid-1681070100583 .commit-highlight-inner{stroke:#fff4dd;fill:#fff4dd;}#mermaid-1681070100583 .arrow{stroke-width:8;stroke-linecap:round;fill:none;}#mermaid-1681070100583 .gitTitleText{text-anchor:middle;font-size:18px;fill:#333;}:root{--mermaid-font-family:"trebuchet ms",verdana,arial,sans-serif;}</style><g/><g class="commit-bullets"/><g class="commit-labels"/><g><line class="branch branch0" y2="0" x2="500" y1="0" x1="0"/><rect transform="translate(-19, -9.25)" height="22.5" width="68.59375" y="-1.25" x="-84.59375" ry="4" rx="4" class="branchLabelBkg label0"/><g class="branchLabel"><g transform="translate(-94.59375, -10.25)" class="label branch-label0"><text><tspan class="row" x="0" dy="1em" xml:space="preserve">staging</tspan></text></g></g><line class="branch branch1" y2="90" x2="500" y1="90" x1="0"/><rect transform="translate(-19, 80.75)" height="22.5" width="52.9921875" y="-1.25" x="-68.9921875" ry="4" rx="4" class="branchLabelBkg label1"/><g class="branchLabel"><g transform="translate(-78.9921875, 79.75)" class="label branch-label1"><text><tspan class="row" x="0" dy="1em" xml:space="preserve">main</tspan></text></g></g></g><g class="commit-arrows"><path class="arrow arrow0" d="M 10 0 L 10 0  10 0 L 60 0"/><path class="arrow arrow1" d="M 60 0 L 60 70 A 20 20, 0, 0, 0, 80 90 L 110 90"/><path class="arrow arrow1" d="M 110 90 L 110 90  110 90 L 160 90"/><path class="arrow arrow1" d="M 160 90 L 160 90  160 90 L 210 90"/><path class="arrow arrow1" d="M 210 90 L 210 90  210 90 L 260 90"/><path class="arrow arrow1" d="M 260 90 L 260 90  260 90 L 310 90"/><path class="arrow arrow1" d="M 310 90 L 310 90  310 90 L 360 90"/><path class="arrow arrow1" d="M 360 90 L 360 90  360 90 L 410 90"/><path class="arrow arrow0" d="M 60 0 L 60 0  60 0 L 460 0"/><path class="arrow arrow1" d="M 410 90 L 440 90 A 20 20, 0, 0, 0, 460 70 L 460 0"/></g><g class="commit-bullets"><circle class="commit 0865592 commit0" r="10" cy="0" cx="10"/><circle class="commit af2f5e9 commit0" r="10" cy="0" cx="60"/><circle class="commit ef40b40 commit1" r="10" cy="90" cx="110"/><circle class="commit 8caaadd commit1" r="10" cy="90" cx="160"/><circle class="commit dd81f00 commit1" r="10" cy="90" cx="210"/><circle class="commit f94bbb3 commit1" r="10" cy="90" cx="260"/><circle class="commit ... commit1" r="10" cy="90" cx="310"/><circle class="commit 3b48cd9 commit1" r="10" cy="90" cx="360"/><circle class="commit 6854a97 commit1" r="10" cy="90" cx="410"/><circle class="commit MERGE commit commit0" r="9" cy="0" cx="460"/><circle class="commit commit-merge MERGE commit commit0" r="6" cy="0" cx="460"/></g><g class="commit-labels"><g transform="translate(-25.25015625, 22.48171875) rotate(-45, 0, 0)"><rect height="15.5" width="40.7109375" y="13.5" x="-10.35546875" class="commit-label-bkg"/><text class="commit-label" y="25" x="-8.35546875">0865592</text></g><g transform="translate(-24.15765625, 21.50421875) rotate(-45, 50, 0)"><rect height="15.5" width="37.8359375" y="13.5" x="41.08203125" class="commit-label-bkg"/><text class="commit-label" y="25" x="43.08203125">af2f5e9</text></g><polygon points="4.38671875,-17.2&#10;          4.38671875,-21.2&#10;          12.38671875,-29.2&#10;          107.61328125,-29.2&#10;          107.61328125,-9.2&#10;          12.38671875,-9.2" class="tag-label-bkg"/><circle class="tag-hole" r="1.5" cy="-19.2" cx="8.38671875"/><text x="16.38671875" class="tag-label" y="-16">origin/staging</text><g transform="translate(-24.8671875, 22.1390625) rotate(-45, 100, 90)"><rect height="15.5" width="39.703125" y="103.5" x="90.1484375" class="commit-label-bkg"/><text class="commit-label" y="115" x="92.1484375">ef40b40</text></g><g transform="translate(-25.39859375, 22.61453125) rotate(-45, 150, 90)"><rect height="15.5" width="41.1015625" y="103.5" x="139.44921875" class="commit-label-bkg"/><text class="commit-label" y="115" x="141.44921875">8caaadd</text></g><g transform="translate(-24.91171875, 22.17890625) rotate(-45, 200, 90)"><rect height="15.5" width="39.8203125" y="103.5" x="190.08984375" class="commit-label-bkg"/><text class="commit-label" y="115" x="192.08984375">dd81f00</text></g><g transform="translate(-25.03640625, 22.290468750000002) rotate(-45, 250, 90)"><rect height="15.5" width="40.1484375" y="103.5" x="239.92578125" class="commit-label-bkg"/><text class="commit-label" y="115" x="241.92578125">f94bbb3</text></g><g transform="translate(-15.485937499999999, 13.7453125) rotate(-45, 300, 90)"><rect height="15.5" width="15.015625" y="103.5" x="302.4921875" class="commit-label-bkg"/><text class="commit-label" y="115" x="304.4921875">...</text></g><g transform="translate(-25.38671875, 22.60390625) rotate(-45, 350, 90)"><rect height="15.5" width="41.0703125" y="103.5" x="339.46484375" class="commit-label-bkg"/><text class="commit-label" y="115" x="341.46484375">3b48cd9</text></g><g transform="translate(-25.253125, 22.484375) rotate(-45, 400, 90)"><rect height="15.5" width="40.71875" y="103.5" x="389.640625" class="commit-label-bkg"/><text class="commit-label" y="115" x="391.640625">6854a97</text></g><g transform="translate(-36.8134375, 32.8278125) rotate(-45, 450, 0)"><rect height="15.5" width="71.140625" y="13.5" x="424.4296875" class="commit-label-bkg"/><text class="commit-label" y="25" x="426.4296875">MERGE commit</text></g></g></svg>